<?xml version="1.0" encoding="iso-8859-1"?>
<!-- Uploaded to: SVG Repo, www.svgrepo.com, Generator: SVG Repo Mixer Tools -->
<svg fill="#000000" height="800px" width="800px" version="1.1" id="Capa_1" xmlns="http://www.w3.org/2000/svg" xmlns:xlink="http://www.w3.org/1999/xlink" 
	 viewBox="0 0 612 612" xml:space="preserve">
<g>
	<g>
		<g>
			<path d="M507.921,445.34c-34.766-24.516-76.772-41.947-122.504-51.296c10.094-7.34,19.397-16.031,27.721-25.86l142.126-66.532
				c7.149-3.346,11.108-11.128,9.6-18.876c-0.558-2.85-14.024-70.631-51.66-139.402C461.871,49.578,390.223,0,306.001,0
				c-84.219,0-155.87,49.578-207.205,143.375c-37.635,68.769-51.102,136.551-51.659,139.402c-1.508,7.748,2.45,15.53,9.599,18.876
				l142.129,66.532c8.324,9.83,17.627,18.521,27.721,25.86c-45.735,9.349-87.738,26.78-122.505,51.293
				c-55.989,39.478-86.822,92.553-86.822,149.448c0,9.506,7.705,17.212,17.212,17.212h543.06c9.508,0,17.212-7.707,17.212-17.212
				C594.744,537.892,563.911,484.817,507.921,445.34z M456.912,577.575v-48.378c0-9.506-7.704-17.212-17.212-17.212
				c-9.506,0-17.212,7.707-17.212,17.212v48.378H189.511v-48.378c0-9.506-7.704-17.212-17.212-17.212
				c-9.506,0-17.212,7.707-17.212,17.212v48.378H52.922c5.637-38.98,30.348-75.439,70.998-104.101
				c19.173-13.52,40.908-24.625,64.443-33.117c15.582,13.655,61.154,48.746,118.007,48.746c0.871,0,1.757-0.009,2.631-0.026
				c39.181-0.749,75.213-18.014,107.16-51.323c26.424,8.774,50.729,20.775,71.924,35.719c40.647,28.662,65.359,65.12,70.996,104.101
				H456.912V577.575z M229.62,428.557c24.39-5.276,50.068-8.015,76.383-8.015c24.326,0,48.104,2.345,70.831,6.866
				c-21.331,17.583-44.213,26.735-68.265,27.247C276.77,455.34,248.285,441.027,229.62,428.557z M189.514,243.933
				c0-9.506-7.707-17.212-17.212-17.212c-9.508,0-17.212,7.707-17.212,17.212c0,25.581,4.676,49.903,13.071,71.872L83.93,276.375
				c5.57-22.162,19.338-69.469,45.065-116.472C174.562,76.641,234.117,34.425,306.001,34.425
				c71.674,0,131.099,41.984,176.624,124.782c25.892,47.09,39.818,94.865,45.438,117.171l-84.222,39.427
				c8.395-21.969,13.074-46.291,13.074-71.872c0-9.506-7.707-17.212-17.212-17.212c-9.508,0-17.212,7.707-17.212,17.212
				c0,78.4-52.257,142.185-116.487,142.185C241.771,386.118,189.514,322.333,189.514,243.933z"/>
		</g>
	</g>
</g>
</svg>